<?xml version="1.0" encoding="utf-8"?>
<!-- Generator: Adobe Illustrator 20.1.0, SVG Export Plug-In . SVG Version: 6.00 Build 0)  -->
<svg version="1.1" id="Layer_1" xmlns="http://www.w3.org/2000/svg" xmlns:xlink="http://www.w3.org/1999/xlink" x="0px" y="0px"
	 viewBox="0 0 16 16" style="enable-background:new 0 0 16 16;" xml:space="preserve">
<style type="text/css">
	.st0{fill:#fff;}
</style>
<g>
	<path class="st0" d="M11.6,6v1.3c0,0.1,0.1,0.2,0.2,0.2c0.1,0,0.2-0.1,0.2-0.2V6c0-0.1-0.1-0.2-0.2-0.2C11.7,5.8,11.6,5.8,11.6,6z"
		/>
	<path class="st0" d="M9.8,8.3c0.1,0,0.1,0,0.1-0.1C10,8.1,10,8,10,7.9L9.1,7C9,7,8.9,7,8.8,7c-0.1,0.1-0.1,0.2,0,0.3l0.9,0.9
		C9.7,8.2,9.8,8.3,9.8,8.3z"/>
	<path class="st0" d="M7.7,9.8c-0.1,0-0.2,0.1-0.2,0.2s0.1,0.2,0.2,0.2H9c0.1,0,0.2-0.1,0.2-0.2S9.1,9.8,9,9.8H7.7z"/>
	<path class="st0" d="M9.7,11.8l-0.9,0.9c-0.1,0.1-0.1,0.2,0,0.3c0,0,0.1,0.1,0.1,0.1c0,0,0.1,0,0.1-0.1l0.9-0.9
		c0.1-0.1,0.1-0.2,0-0.3C9.9,11.8,9.8,11.8,9.7,11.8z"/>
	<path class="st0" d="M13.8,11.8c-0.1-0.1-0.2-0.1-0.3,0c-0.1,0.1-0.1,0.2,0,0.3l0.9,0.9c0,0,0.1,0.1,0.1,0.1c0,0,0.1,0,0.1-0.1
		c0.1-0.1,0.1-0.2,0-0.3L13.8,11.8z"/>
	<path class="st0" d="M15.8,9.8h-1.3c-0.1,0-0.2,0.1-0.2,0.2s0.1,0.2,0.2,0.2h1.3c0.1,0,0.2-0.1,0.2-0.2S15.9,9.8,15.8,9.8z"/>
	<path class="st0" d="M13.7,8.3c0,0,0.1,0,0.1-0.1l0.9-0.9c0.1-0.1,0.1-0.2,0-0.3C14.7,7,14.6,7,14.5,7l-0.9,0.9
		c-0.1,0.1-0.1,0.2,0,0.3C13.6,8.2,13.7,8.3,13.7,8.3z"/>
	<path class="st0" d="M10,10.9c-0.1-0.2-0.2-0.4-0.2-0.7c-2.2,0-3.1,1.2-3.1,1.2s-1-1.2-3.2-1.2c-2,0-2.6,1.2-2.6,1.2
		c-0.1,0-0.2-0.1-0.2-0.2V4.1c0,0,1-1.3,2.8-1.3c2.4,0,2.7,1.3,3.2,1.3c0.5,0,0.9-1.3,3.1-1.3c2.2,0,2.8,1.3,2.8,1.3v4.1
		c0.1,0,0.1,0.1,0.2,0.1c0.2,0.1,0.3,0.2,0.5,0.4V3.9c0,0-0.8-1.8-3.5-1.8c-2.2,0-3.1,1.2-3.1,1.2s-1-1.2-3.2-1.2S0,3.8,0,3.8v7.9
		c0,0.3,0.2,0.4,0.4,0.4c1.2,0,0.9-1.2,3.1-1.2c2.1,0,2.7,1.2,3.2,1.2c0.4,0,1-1.2,3.2-1.2C9.9,10.9,9.9,10.9,10,10.9z"/>
	<path class="st0" d="M12.7,8.5c-0.3-0.2-0.6-0.2-0.9-0.2c-0.3,0-0.6,0.1-0.9,0.2C10,9,9.7,10.2,10.2,11l0.6,1.1v0.8
		c0,0.6,0.4,1,1,1c0.4,0,0.7-0.2,0.9-0.5l0,0c0.1-0.1,0.1-0.3,0.1-0.4v-0.8l0.6-1.1C13.9,10.2,13.6,9,12.7,8.5z M11.8,13.5
		c-0.2,0-0.4-0.1-0.6-0.3l1,0.1C12.1,13.5,11.9,13.5,11.8,13.5z M12.4,12.9c0,0.1,0,0.1,0,0.2l-1.3-0.2v-0.2L12.4,12.9L12.4,12.9z
		 M11.1,12.3L11.1,12.3c0-0.1,1.3-0.1,1.3-0.1v0.3L11.1,12.3z M13.1,10.9l-0.6,1h-0.2v-0.3l0.3-0.9c0-0.1,0-0.2-0.1-0.2
		c-0.1,0-0.2,0-0.2,0.1l-0.3,0.9c0,0,0,0,0,0.1v0.3h-0.3v-0.3c0,0,0,0,0-0.1l-0.3-0.9c0-0.1-0.1-0.1-0.2-0.1c-0.1,0-0.1,0.1-0.1,0.2
		l0.3,0.9v0.3H11l-0.6-1C10,10.1,10.3,9.2,11,8.8c0.2-0.1,0.5-0.2,0.8-0.2c0.3,0,0.5,0.1,0.8,0.2C13.3,9.2,13.5,10.1,13.1,10.9z"/>
	<rect x="6.4" y="4.4" class="st0" width="0.4" height="5.4"/>
</g>
</svg>
