<?xml version="1.0" encoding="utf-8"?>
<!-- Generator: Adobe Illustrator 20.1.0, SVG Export Plug-In . SVG Version: 6.00 Build 0)  -->
<svg version="1.1" id="Layer_1" xmlns="http://www.w3.org/2000/svg" xmlns:xlink="http://www.w3.org/1999/xlink" x="0px" y="0px"
	 viewBox="0 0 38 38" style="enable-background:new 0 0 38 38;" xml:space="preserve">
<style type="text/css">
	.st0{fill:#098DDF;}
	.st1{fill:#FFFFFF;}
</style>
<circle class="st0" cx="19" cy="19" r="19"/>
<g>
	<path class="st1" d="M19,19.1c-3.4,0-6.2-2.8-6.2-6.2s2.8-6.2,6.2-6.2s6.2,2.8,6.2,6.2S22.4,19.1,19,19.1z"/>
	<path class="st1" d="M27.1,31.3h-16c-0.6,0-1.1-0.2-1.6-0.5c-1.4-1-2-2.6-1.6-4.2c0.7-3.2,2-5.4,4.4-7.6c0.8-0.7,2-0.8,2.9-0.2
		c2.3,1.5,5.4,1.5,7.8,0c0.9-0.6,2.1-0.5,2.8,0.2c2.2,1.9,3.6,4.5,4.4,7.6c0.4,1.7-0.4,3.4-1.8,4.4C28,31.2,27.5,31.3,27.1,31.3z"/>
</g>
</svg>
