<?xml version="1.0" encoding="utf-8"?>
<!-- Generator: Adobe Illustrator 20.1.0, SVG Export Plug-In . SVG Version: 6.00 Build 0)  -->
<svg version="1.1" id="Capa_1" xmlns="http://www.w3.org/2000/svg" xmlns:xlink="http://www.w3.org/1999/xlink" x="0px" y="0px"
	 viewBox="0 0 800 800" style="enable-background:new 0 0 800 800;" xml:space="preserve">
<style type="text/css">
	.st0{fill:#2D5602;}
	.st1{fill:#5CB70B;}
</style>
<g>
	<path class="st0" d="M563.9,218.5c-5.3,0-9.6,4.3-9.6,9.6v15.8c0,5.3,4.3,9.6,9.6,9.6h14.5c5.3,0,9.6-4.3,9.6-9.6v-15.8
		c0-5.3-4.3-9.6-9.6-9.6H563.9z"/>
	<path class="st1" d="M588,198v50.5c0-11.9-20.8-10.8-33-10.8c-5.9,0-90.3,0-90.3,0v-49c0,0,57-0.7,85.1,0
		C571.1,189.3,588,188.2,588,198z"/>
</g>
</svg>
