<?xml version="1.0" encoding="utf-8"?>
<!-- Generator: Adobe Illustrator 20.1.0, SVG Export Plug-In . SVG Version: 6.00 Build 0)  -->
<svg version="1.1" id="Layer_1" xmlns="http://www.w3.org/2000/svg" xmlns:xlink="http://www.w3.org/1999/xlink" x="0px" y="0px"
	 viewBox="0 0 100 100" style="enable-background:new 0 0 100 100;" xml:space="preserve">
<path d="M60.4,13.3h15.7l5.7-8.5H24l-5.7,8.5h15.9c1.6,0.1,13.1,0.9,17.2,9.3H23.9l-5.7,8.5h34.6c0,0.2,0,0.3,0,0.5
	c0,0-0.2,18.6-31.4,15.4v4l0,4.4l33.7,39.8h12.8v-1.8L35.7,54v-0.6c0,0,25.4,0.4,29.6-22.1c0,0,0-0.1,0-0.2H76l5.7-8.5H64.8
	C64.2,19.5,62.9,16.1,60.4,13.3z"/>
</svg>
